<svg xmlns="http://www.w3.org/2000/svg" fill="none" stroke-linecap="square" stroke-miterlimit="10" viewBox="0 0 512 512"><clipPath id="a"><path d="M0 0h512v512H0z"/></clipPath><g clip-path="url(#a)"><path fill="none" d="M0 0h512v512H0z"/><path fill="#434343" fill-rule="evenodd" d="M.961 1.07h510.08v509.858H.96z"/><path fill="#000" fill-rule="evenodd" d="M74.661 74.661H437.34V437.34H74.66z"/><path stroke="#000" stroke-linecap="butt" stroke-linejoin="round" d="M74.661 74.661H437.34V437.34H74.66z"/><path fill="#fff" fill-rule="evenodd" d="M74.522 430.589h246.142v5.732H74.522z"/><path stroke="#000" stroke-linecap="butt" stroke-linejoin="round" d="M74.522 430.589h246.142v5.732H74.522z"/><path fill="#fff" fill-rule="evenodd" d="M74.522 420.67h246.142v5.732H74.522z"/><path stroke="#000" stroke-linecap="butt" stroke-linejoin="round" d="M74.522 420.67h246.142v5.732H74.522z"/><path fill="#fff" fill-rule="evenodd" d="M74.522 410.75h217.733v5.733H74.522z"/><path stroke="#000" stroke-linecap="butt" stroke-linejoin="round" d="M74.522 410.75h217.733v5.733H74.522z"/><path fill="#fff" fill-rule="evenodd" d="M74.659 400.832h230.016v5.732H74.659z"/><path stroke="#000" stroke-linecap="butt" stroke-linejoin="round" d="M74.659 400.832h230.016v5.732H74.659z"/><path fill="#fff" fill-rule="evenodd" d="M74.662 391.727h29.669v5.732h-29.67z"/><path stroke="#000" stroke-linecap="butt" stroke-linejoin="round" d="M74.662 391.727h29.669v5.732h-29.67z"/><path fill="#fff" fill-rule="evenodd" d="M74.662 382.622h29.669v5.733h-29.67z"/><path stroke="#000" stroke-linecap="butt" stroke-linejoin="round" d="M74.662 382.622h29.669v5.733h-29.67z"/><path fill="#fff" fill-rule="evenodd" d="M74.662 373.517h29.669v5.733h-29.67z"/><path stroke="#000" stroke-linecap="butt" stroke-linejoin="round" d="M74.662 373.517h29.669v5.733h-29.67z"/><path fill="#fff" fill-rule="evenodd" d="M74.662 364.412h29.669v5.733h-29.67z"/><path stroke="#000" stroke-linecap="butt" stroke-linejoin="round" d="M74.662 364.412h29.669v5.733h-29.67z"/><path fill="#fff" fill-rule="evenodd" d="M74.662 355.307h29.669v5.733h-29.67z"/><path stroke="#000" stroke-linecap="butt" stroke-linejoin="round" d="M74.662 355.307h29.669v5.733h-29.67z"/><path fill="#fff" fill-rule="evenodd" d="M74.662 346.202h29.669v5.733h-29.67z"/><path stroke="#000" stroke-linecap="butt" stroke-linejoin="round" d="M74.662 346.202h29.669v5.733h-29.67z"/><path fill="#fff" fill-rule="evenodd" d="M74.662 337.097h29.669v5.733h-29.67z"/><path stroke="#000" stroke-linecap="butt" stroke-linejoin="round" d="M74.662 337.097h29.669v5.733h-29.67z"/><path fill="#fff" fill-rule="evenodd" d="M74.662 327.992h29.669v5.733h-29.67z"/><path stroke="#000" stroke-linecap="butt" stroke-linejoin="round" d="M74.662 327.992h29.669v5.733h-29.67z"/><path fill="#fff" fill-rule="evenodd" d="M74.662 318.887h29.669v5.733h-29.67z"/><path stroke="#000" stroke-linecap="butt" stroke-linejoin="round" d="M74.662 318.887h29.669v5.733h-29.67z"/><path fill="#fff" fill-rule="evenodd" d="M74.662 309.782h29.669v5.733h-29.67z"/><path stroke="#000" stroke-linecap="butt" stroke-linejoin="round" d="M74.662 309.782h29.669v5.733h-29.67z"/><path fill="#fff" fill-rule="evenodd" d="M74.662 300.677h29.669v5.733h-29.67z"/><path stroke="#000" stroke-linecap="butt" stroke-linejoin="round" d="M74.662 300.677h29.669v5.733h-29.67z"/><path fill="#fff" fill-rule="evenodd" d="M74.662 291.572h29.669v5.733h-29.67z"/><path stroke="#000" stroke-linecap="butt" stroke-linejoin="round" d="M74.662 291.572h29.669v5.733h-29.67z"/><path fill="#fff" fill-rule="evenodd" d="M74.662 282.467h29.669v5.733h-29.67z"/><path stroke="#000" stroke-linecap="butt" stroke-linejoin="round" d="M74.662 282.467h29.669v5.733h-29.67z"/><path fill="#fff" fill-rule="evenodd" d="M74.662 273.362h29.669v5.733h-29.67z"/><path stroke="#000" stroke-linecap="butt" stroke-linejoin="round" d="M74.662 273.362h29.669v5.733h-29.67z"/><path fill="#fff" fill-rule="evenodd" d="M74.66 264.257h135.906v5.732H74.66z"/><path stroke="#000" stroke-linecap="butt" stroke-linejoin="round" d="M74.66 264.257h135.906v5.732H74.66z"/><path fill="#fff" fill-rule="evenodd" d="M74.661 255.152H194.63v5.733H74.66z"/><path stroke="#000" stroke-linecap="butt" stroke-linejoin="round" d="M74.661 255.152H194.63v5.733H74.66z"/><path fill="#fff" fill-rule="evenodd" d="M74.66 246.047h138.93v5.733H74.66z"/><path stroke="#000" stroke-linecap="butt" stroke-linejoin="round" d="M74.66 246.047h138.93v5.733H74.66z"/><path fill="#fff" fill-rule="evenodd" d="M74.66 236.942h125.45v5.733H74.66z"/><path stroke="#000" stroke-linecap="butt" stroke-linejoin="round" d="M74.66 236.942h125.45v5.733H74.66z"/><path fill="#fff" fill-rule="evenodd" d="M74.662 227.837h29.669v5.733h-29.67z"/><path stroke="#000" stroke-linecap="butt" stroke-linejoin="round" d="M74.662 227.837h29.669v5.733h-29.67z"/><path fill="#fff" fill-rule="evenodd" d="M74.662 218.732h29.669v5.733h-29.67z"/><path stroke="#000" stroke-linecap="butt" stroke-linejoin="round" d="M74.662 218.732h29.669v5.733h-29.67z"/><path fill="#fff" fill-rule="evenodd" d="M74.662 209.628h29.669v5.732h-29.67z"/><path stroke="#000" stroke-linecap="butt" stroke-linejoin="round" d="M74.662 209.628h29.669v5.732h-29.67z"/><path fill="#fff" fill-rule="evenodd" d="M74.662 200.523h29.669v5.732h-29.67z"/><path stroke="#000" stroke-linecap="butt" stroke-linejoin="round" d="M74.662 200.523h29.669v5.732h-29.67z"/><path fill="#fff" fill-rule="evenodd" d="M74.662 191.418h29.669v5.732h-29.67z"/><path stroke="#000" stroke-linecap="butt" stroke-linejoin="round" d="M74.662 191.418h29.669v5.732h-29.67z"/><path fill="#fff" fill-rule="evenodd" d="M74.662 182.313h29.669v5.732h-29.67z"/><path stroke="#000" stroke-linecap="butt" stroke-linejoin="round" d="M74.662 182.313h29.669v5.732h-29.67z"/><path fill="#fff" fill-rule="evenodd" d="M74.662 173.208h29.669v5.732h-29.67z"/><path stroke="#000" stroke-linecap="butt" stroke-linejoin="round" d="M74.662 173.208h29.669v5.732h-29.67z"/><path fill="#fff" fill-rule="evenodd" d="M74.662 164.103h29.669v5.732h-29.67z"/><path stroke="#000" stroke-linecap="butt" stroke-linejoin="round" d="M74.662 164.103h29.669v5.732h-29.67z"/><path fill="#fff" fill-rule="evenodd" d="M74.662 154.998h29.669v5.732h-29.67z"/><path stroke="#000" stroke-linecap="butt" stroke-linejoin="round" d="M74.662 154.998h29.669v5.732h-29.67z"/><path fill="#fff" fill-rule="evenodd" d="M74.662 145.893h29.669v5.732h-29.67z"/><path stroke="#000" stroke-linecap="butt" stroke-linejoin="round" d="M74.662 145.893h29.669v5.732h-29.67z"/><path fill="#fff" fill-rule="evenodd" d="M74.662 136.788h29.669v5.732h-29.67z"/><path stroke="#000" stroke-linecap="butt" stroke-linejoin="round" d="M74.662 136.788h29.669v5.732h-29.67z"/><path fill="#fff" fill-rule="evenodd" d="M74.662 127.683h29.669v5.732h-29.67z"/><path stroke="#000" stroke-linecap="butt" stroke-linejoin="round" d="M74.662 127.683h29.669v5.732h-29.67z"/><path fill="#fff" fill-rule="evenodd" d="M74.662 118.578h29.669v5.732h-29.67z"/><path stroke="#000" stroke-linecap="butt" stroke-linejoin="round" d="M74.662 118.578h29.669v5.732h-29.67z"/><path fill="#fff" fill-rule="evenodd" d="M74.662 109.473h29.669v5.732h-29.67z"/><path stroke="#000" stroke-linecap="butt" stroke-linejoin="round" d="M74.662 109.473h29.669v5.732h-29.67z"/><path fill="#fff" fill-rule="evenodd" d="M74.66 100.367h238.803v5.733H74.659z"/><path stroke="#000" stroke-linecap="butt" stroke-linejoin="round" d="M74.66 100.367h238.803v5.733H74.659z"/><path fill="#fff" fill-rule="evenodd" d="M74.66 91.262h232.503v5.733H74.66z"/><path stroke="#000" stroke-linecap="butt" stroke-linejoin="round" d="M74.66 91.262h232.503v5.733H74.66z"/><path fill="#fff" fill-rule="evenodd" d="M74.66 82.157H320.8v5.733H74.659z"/><path stroke="#000" stroke-linecap="butt" stroke-linejoin="round" d="M74.66 82.157H320.8v5.733H74.659z"/><path fill="#fff" fill-rule="evenodd" d="M74.659 74.661H320.8v5.733H74.66z"/><path stroke="#000" stroke-linecap="butt" stroke-linejoin="round" d="M74.659 74.661H320.8v5.733H74.66z"/></g></svg>
