<svg version="1.1" viewBox="0.0 0.0 512.0 512.0" fill="none" stroke="none" stroke-linecap="square" stroke-miterlimit="10" xmlns:xlink="http://www.w3.org/1999/xlink" xmlns="http://www.w3.org/2000/svg"><clipPath id="p.0"><path d="m0 0l512.0 0l0 512.0l-512.0 0l0 -512.0z" clip-rule="nonzero"/></clipPath><g clip-path="url(#p.0)"><path fill="#000000" fill-opacity="0.0" d="m0 0l512.0 0l0 512.0l-512.0 0z" fill-rule="evenodd"/><path fill="#000000" d="m0.19696614 0.16802888l511.81104 0l0 511.81104l-511.81104 0z" fill-rule="evenodd"/><path stroke="#000000" stroke-width="1.4094488188976377" stroke-linejoin="round" stroke-linecap="butt" d="m0.19696614 0.16802888l511.81104 0l0 511.81104l-511.81104 0z" fill-rule="evenodd"/><path fill="#ffffff" d="m6.5800524E-4 502.45248l347.33856 0l0 8.062988l-347.33856 0z" fill-rule="evenodd"/><path stroke="#000000" stroke-width="1.4094488188976377" stroke-linejoin="round" stroke-linecap="butt" d="m6.5800524E-4 502.45248l347.33856 0l0 8.062988l-347.33856 0z" fill-rule="evenodd"/><path fill="#ffffff" d="m0 488.45428l347.3386 0l0 8.063019l-347.3386 0z" fill-rule="evenodd"/><path stroke="#000000" stroke-width="1.4094488188976377" stroke-linejoin="round" stroke-linecap="butt" d="m0 488.45428l347.3386 0l0 8.063019l-347.3386 0z" fill-rule="evenodd"/><path fill="#ffffff" d="m7.1154855E-4 474.457l307.2756 0l0 8.062988l-307.2756 0z" fill-rule="evenodd"/><path stroke="#000000" stroke-width="1.4094488188976377" stroke-linejoin="round" stroke-linecap="butt" d="m7.1154855E-4 474.457l307.2756 0l0 8.062988l-307.2756 0z" fill-rule="evenodd"/><path fill="#ffffff" d="m0.19330971 460.45984l324.59845 0l0 8.062988l-324.59845 0z" fill-rule="evenodd"/><path stroke="#000000" stroke-width="1.4094488188976377" stroke-linejoin="round" stroke-linecap="butt" d="m0.19330971 460.45984l324.59845 0l0 8.062988l-324.59845 0z" fill-rule="evenodd"/><path fill="#ffffff" d="m0.19737375 447.61115l41.85827 0l0 8.062988l-41.85827 0z" fill-rule="evenodd"/><path stroke="#000000" stroke-width="1.4094488188976377" stroke-linejoin="round" stroke-linecap="butt" d="m0.19737375 447.61115l41.85827 0l0 8.062988l-41.85827 0z" fill-rule="evenodd"/><path fill="#ffffff" d="m0.19737375 434.7622l41.85827 0l0 8.062988l-41.85827 0z" fill-rule="evenodd"/><path stroke="#000000" stroke-width="1.4094488188976377" stroke-linejoin="round" stroke-linecap="butt" d="m0.19737375 434.7622l41.85827 0l0 8.062988l-41.85827 0z" fill-rule="evenodd"/><path fill="#ffffff" d="m0.19737375 421.91324l41.85827 0l0 8.062988l-41.85827 0z" fill-rule="evenodd"/><path stroke="#000000" stroke-width="1.4094488188976377" stroke-linejoin="round" stroke-linecap="butt" d="m0.19737375 421.91324l41.85827 0l0 8.062988l-41.85827 0z" fill-rule="evenodd"/><path fill="#ffffff" d="m0.19737375 409.0643l41.85827 0l0 8.062988l-41.85827 0z" fill-rule="evenodd"/><path stroke="#000000" stroke-width="1.4094488188976377" stroke-linejoin="round" stroke-linecap="butt" d="m0.19737375 409.0643l41.85827 0l0 8.062988l-41.85827 0z" fill-rule="evenodd"/><path fill="#ffffff" d="m0.19737375 396.21533l41.85827 0l0 8.062988l-41.85827 0z" fill-rule="evenodd"/><path stroke="#000000" stroke-width="1.4094488188976377" stroke-linejoin="round" stroke-linecap="butt" d="m0.19737375 396.21533l41.85827 0l0 8.062988l-41.85827 0z" fill-rule="evenodd"/><path fill="#ffffff" d="m0.19737375 383.3664l41.85827 0l0 8.062988l-41.85827 0z" fill-rule="evenodd"/><path stroke="#000000" stroke-width="1.4094488188976377" stroke-linejoin="round" stroke-linecap="butt" d="m0.19737375 383.3664l41.85827 0l0 8.062988l-41.85827 0z" fill-rule="evenodd"/><path fill="#ffffff" d="m0.19737375 370.51743l41.85827 0l0 8.062988l-41.85827 0z" fill-rule="evenodd"/><path stroke="#000000" stroke-width="1.4094488188976377" stroke-linejoin="round" stroke-linecap="butt" d="m0.19737375 370.51743l41.85827 0l0 8.062988l-41.85827 0z" fill-rule="evenodd"/><path fill="#ffffff" d="m0.19737375 357.6685l41.85827 0l0 8.062988l-41.85827 0z" fill-rule="evenodd"/><path stroke="#000000" stroke-width="1.4094488188976377" stroke-linejoin="round" stroke-linecap="butt" d="m0.19737375 357.6685l41.85827 0l0 8.062988l-41.85827 0z" fill-rule="evenodd"/><path fill="#ffffff" d="m0.19737375 344.81952l41.85827 0l0 8.062988l-41.85827 0z" fill-rule="evenodd"/><path stroke="#000000" stroke-width="1.4094488188976377" stroke-linejoin="round" stroke-linecap="butt" d="m0.19737375 344.81952l41.85827 0l0 8.062988l-41.85827 0z" fill-rule="evenodd"/><path fill="#ffffff" d="m0.19737375 331.97058l41.85827 0l0 8.062988l-41.85827 0z" fill-rule="evenodd"/><path stroke="#000000" stroke-width="1.4094488188976377" stroke-linejoin="round" stroke-linecap="butt" d="m0.19737375 331.97058l41.85827 0l0 8.062988l-41.85827 0z" fill-rule="evenodd"/><path fill="#ffffff" d="m0.19737375 319.1216l41.85827 0l0 8.063019l-41.85827 0z" fill-rule="evenodd"/><path stroke="#000000" stroke-width="1.4094488188976377" stroke-linejoin="round" stroke-linecap="butt" d="m0.19737375 319.1216l41.85827 0l0 8.063019l-41.85827 0z" fill-rule="evenodd"/><path fill="#ffffff" d="m0.19737375 306.27267l41.85827 0l0 8.062988l-41.85827 0z" fill-rule="evenodd"/><path stroke="#000000" stroke-width="1.4094488188976377" stroke-linejoin="round" stroke-linecap="butt" d="m0.19737375 306.27267l41.85827 0l0 8.062988l-41.85827 0z" fill-rule="evenodd"/><path fill="#ffffff" d="m0.19737375 293.4237l41.85827 0l0 8.063019l-41.85827 0z" fill-rule="evenodd"/><path stroke="#000000" stroke-width="1.4094488188976377" stroke-linejoin="round" stroke-linecap="butt" d="m0.19737375 293.4237l41.85827 0l0 8.063019l-41.85827 0z" fill-rule="evenodd"/><path fill="#ffffff" d="m0.19737375 280.57477l41.85827 0l0 8.062988l-41.85827 0z" fill-rule="evenodd"/><path stroke="#000000" stroke-width="1.4094488188976377" stroke-linejoin="round" stroke-linecap="butt" d="m0.19737375 280.57477l41.85827 0l0 8.062988l-41.85827 0z" fill-rule="evenodd"/><path fill="#ffffff" d="m0.19550551 267.72552l191.77953 0l0 8.062988l-191.77953 0z" fill-rule="evenodd"/><path stroke="#000000" stroke-width="1.4094488188976377" stroke-linejoin="round" stroke-linecap="butt" d="m0.19550551 267.72552l191.77953 0l0 8.062988l-191.77953 0z" fill-rule="evenodd"/><path fill="#ffffff" d="m0.19675985 254.87657l169.29134 0l0 8.063004l-169.29134 0z" fill-rule="evenodd"/><path stroke="#000000" stroke-width="1.4094488188976377" stroke-linejoin="round" stroke-linecap="butt" d="m0.19675985 254.87657l169.29134 0l0 8.063004l-169.29134 0z" fill-rule="evenodd"/><path fill="#ffffff" d="m0.19546404 242.02762l196.06299 0l0 8.063004l-196.06299 0z" fill-rule="evenodd"/><path stroke="#000000" stroke-width="1.4094488188976377" stroke-linejoin="round" stroke-linecap="butt" d="m0.19546404 242.02762l196.06299 0l0 8.063004l-196.06299 0z" fill-rule="evenodd"/><path fill="#ffffff" d="m0.19564986 229.17867l177.03937 0l0 8.063004l-177.03937 0z" fill-rule="evenodd"/><path stroke="#000000" stroke-width="1.4094488188976377" stroke-linejoin="round" stroke-linecap="butt" d="m0.19564986 229.17867l177.03937 0l0 8.063004l-177.03937 0z" fill-rule="evenodd"/><path fill="#ffffff" d="m0.19737375 216.33l41.85827 0l0 8.062988l-41.85827 0z" fill-rule="evenodd"/><path stroke="#000000" stroke-width="1.4094488188976377" stroke-linejoin="round" stroke-linecap="butt" d="m0.19737375 216.33l41.85827 0l0 8.062988l-41.85827 0z" fill-rule="evenodd"/><path fill="#ffffff" d="m0.19737375 203.48105l41.85827 0l0 8.062988l-41.85827 0z" fill-rule="evenodd"/><path stroke="#000000" stroke-width="1.4094488188976377" stroke-linejoin="round" stroke-linecap="butt" d="m0.19737375 203.48105l41.85827 0l0 8.062988l-41.85827 0z" fill-rule="evenodd"/><path fill="#ffffff" d="m0.19737375 190.6321l41.85827 0l0 8.062988l-41.85827 0z" fill-rule="evenodd"/><path stroke="#000000" stroke-width="1.4094488188976377" stroke-linejoin="round" stroke-linecap="butt" d="m0.19737375 190.6321l41.85827 0l0 8.062988l-41.85827 0z" fill-rule="evenodd"/><path fill="#ffffff" d="m0.19737375 177.78314l41.85827 0l0 8.062988l-41.85827 0z" fill-rule="evenodd"/><path stroke="#000000" stroke-width="1.4094488188976377" stroke-linejoin="round" stroke-linecap="butt" d="m0.19737375 177.78314l41.85827 0l0 8.062988l-41.85827 0z" fill-rule="evenodd"/><path fill="#ffffff" d="m0.19737375 164.93419l41.85827 0l0 8.062988l-41.85827 0z" fill-rule="evenodd"/><path stroke="#000000" stroke-width="1.4094488188976377" stroke-linejoin="round" stroke-linecap="butt" d="m0.19737375 164.93419l41.85827 0l0 8.062988l-41.85827 0z" fill-rule="evenodd"/><path fill="#ffffff" d="m0.19737375 152.08524l41.85827 0l0 8.062988l-41.85827 0z" fill-rule="evenodd"/><path stroke="#000000" stroke-width="1.4094488188976377" stroke-linejoin="round" stroke-linecap="butt" d="m0.19737375 152.08524l41.85827 0l0 8.062988l-41.85827 0z" fill-rule="evenodd"/><path fill="#ffffff" d="m0.19737375 139.23628l41.85827 0l0 8.062988l-41.85827 0z" fill-rule="evenodd"/><path stroke="#000000" stroke-width="1.4094488188976377" stroke-linejoin="round" stroke-linecap="butt" d="m0.19737375 139.23628l41.85827 0l0 8.062988l-41.85827 0z" fill-rule="evenodd"/><path fill="#ffffff" d="m0.19737375 126.38733l41.85827 0l0 8.062988l-41.85827 0z" fill-rule="evenodd"/><path stroke="#000000" stroke-width="1.4094488188976377" stroke-linejoin="round" stroke-linecap="butt" d="m0.19737375 126.38733l41.85827 0l0 8.062988l-41.85827 0z" fill-rule="evenodd"/><path fill="#ffffff" d="m0.19737375 113.538376l41.85827 0l0 8.062996l-41.85827 0z" fill-rule="evenodd"/><path stroke="#000000" stroke-width="1.4094488188976377" stroke-linejoin="round" stroke-linecap="butt" d="m0.19737375 113.538376l41.85827 0l0 8.062996l-41.85827 0z" fill-rule="evenodd"/><path fill="#ffffff" d="m0.19737375 100.68942l41.85827 0l0 8.062996l-41.85827 0z" fill-rule="evenodd"/><path stroke="#000000" stroke-width="1.4094488188976377" stroke-linejoin="round" stroke-linecap="butt" d="m0.19737375 100.68942l41.85827 0l0 8.062996l-41.85827 0z" fill-rule="evenodd"/><path fill="#ffffff" d="m0.19737375 87.84047l41.85827 0l0 8.062996l-41.85827 0z" fill-rule="evenodd"/><path stroke="#000000" stroke-width="1.4094488188976377" stroke-linejoin="round" stroke-linecap="butt" d="m0.19737375 87.84047l41.85827 0l0 8.062996l-41.85827 0z" fill-rule="evenodd"/><path fill="#ffffff" d="m0.19737375 74.991516l41.85827 0l0 8.062996l-41.85827 0z" fill-rule="evenodd"/><path stroke="#000000" stroke-width="1.4094488188976377" stroke-linejoin="round" stroke-linecap="butt" d="m0.19737375 74.991516l41.85827 0l0 8.062996l-41.85827 0z" fill-rule="evenodd"/><path fill="#ffffff" d="m0.19737375 62.142563l41.85827 0l0 8.062996l-41.85827 0z" fill-rule="evenodd"/><path stroke="#000000" stroke-width="1.4094488188976377" stroke-linejoin="round" stroke-linecap="butt" d="m0.19737375 62.142563l41.85827 0l0 8.062996l-41.85827 0z" fill-rule="evenodd"/><path fill="#ffffff" d="m0.19737375 49.29361l41.85827 0l0 8.062992l-41.85827 0z" fill-rule="evenodd"/><path stroke="#000000" stroke-width="1.4094488188976377" stroke-linejoin="round" stroke-linecap="butt" d="m0.19737375 49.29361l41.85827 0l0 8.062992l-41.85827 0z" fill-rule="evenodd"/><path fill="#ffffff" d="m0.1940916 36.444374l336.97638 0l0 8.062992l-336.97638 0z" fill-rule="evenodd"/><path stroke="#000000" stroke-width="1.4094488188976377" stroke-linejoin="round" stroke-linecap="butt" d="m0.1940916 36.444374l336.97638 0l0 8.062992l-336.97638 0z" fill-rule="evenodd"/><path fill="#ffffff" d="m0.19417821 23.595423l328.09448 0l0 8.062992l-328.09448 0z" fill-rule="evenodd"/><path stroke="#000000" stroke-width="1.4094488188976377" stroke-linejoin="round" stroke-linecap="butt" d="m0.19417821 23.595423l328.09448 0l0 8.062992l-328.09448 0z" fill-rule="evenodd"/><path fill="#ffffff" d="m0.19401497 10.7464695l347.3386 0l0 8.062992l-347.3386 0z" fill-rule="evenodd"/><path stroke="#000000" stroke-width="1.4094488188976377" stroke-linejoin="round" stroke-linecap="butt" d="m0.19401497 10.7464695l347.3386 0l0 8.062992l-347.3386 0z" fill-rule="evenodd"/><path fill="#ffffff" d="m0.19315118 0.16802888l347.3386 0l0 8.062992l-347.3386 0z" fill-rule="evenodd"/><path stroke="#000000" stroke-width="1.4094488188976377" stroke-linejoin="round" stroke-linecap="butt" d="m0.19315118 0.16802888l347.3386 0l0 8.062992l-347.3386 0z" fill-rule="evenodd"/></g></svg>
