<svg version="1.1" viewBox="0.0 0.0 512.0 512.0" fill="none" stroke="none" stroke-linecap="square" stroke-miterlimit="10" xmlns:xlink="http://www.w3.org/1999/xlink" xmlns="http://www.w3.org/2000/svg"><clipPath id="p.0"><path d="m0 0l512.0 0l0 512.0l-512.0 0l0 -512.0z" clip-rule="nonzero"/></clipPath><g clip-path="url(#p.0)"><path fill="#000000" fill-opacity="0.0" d="m0 0l512.0 0l0 512.0l-512.0 0z" fill-rule="evenodd"/><path fill="#434343" d="m0.96142024 1.0700423l510.07874 0l0 509.85828l-510.07874 0z" fill-rule="evenodd"/><path fill="#000000" d="m74.661415 74.661415l362.6772 0l0 362.6772l-362.6772 0z" fill-rule="evenodd"/><path stroke="#000000" stroke-width="1.0" stroke-linejoin="round" stroke-linecap="butt" d="m74.661415 74.661415l362.6772 0l0 362.6772l-362.6772 0z" fill-rule="evenodd"/><path fill="#ffffff" d="m74.52231 430.58875l246.14172 0l0 5.7322693l-246.14172 0z" fill-rule="evenodd"/><path stroke="#000000" stroke-width="1.0" stroke-linejoin="round" stroke-linecap="butt" d="m74.52231 430.58875l246.14172 0l0 5.7322693l-246.14172 0z" fill-rule="evenodd"/><path fill="#ffffff" d="m74.52184 420.66937l246.14172 0l0 5.7323l-246.14172 0z" fill-rule="evenodd"/><path stroke="#000000" stroke-width="1.0" stroke-linejoin="round" stroke-linecap="butt" d="m74.52184 420.66937l246.14172 0l0 5.7323l-246.14172 0z" fill-rule="evenodd"/><path fill="#ffffff" d="m74.52235 410.75067l217.7323 0l0 5.7322693l-217.7323 0z" fill-rule="evenodd"/><path stroke="#000000" stroke-width="1.0" stroke-linejoin="round" stroke-linecap="butt" d="m74.52235 410.75067l217.7323 0l0 5.7322693l-217.7323 0z" fill-rule="evenodd"/><path fill="#ffffff" d="m74.65883 400.83203l230.01573 0l0 5.7322693l-230.01573 0z" fill-rule="evenodd"/><path stroke="#000000" stroke-width="1.0" stroke-linejoin="round" stroke-linecap="butt" d="m74.65883 400.83203l230.01573 0l0 5.7322693l-230.01573 0z" fill-rule="evenodd"/><path fill="#ffffff" d="m74.661705 391.72723l29.669296 0l0 5.7322693l-29.669296 0z" fill-rule="evenodd"/><path stroke="#000000" stroke-width="1.0" stroke-linejoin="round" stroke-linecap="butt" d="m74.661705 391.72723l29.669296 0l0 5.7322693l-29.669296 0z" fill-rule="evenodd"/><path fill="#ffffff" d="m74.661705 382.62225l29.669296 0l0 5.7322693l-29.669296 0z" fill-rule="evenodd"/><path stroke="#000000" stroke-width="1.0" stroke-linejoin="round" stroke-linecap="butt" d="m74.661705 382.62225l29.669296 0l0 5.7322693l-29.669296 0z" fill-rule="evenodd"/><path fill="#ffffff" d="m74.661705 373.51727l29.669296 0l0 5.7322693l-29.669296 0z" fill-rule="evenodd"/><path stroke="#000000" stroke-width="1.0" stroke-linejoin="round" stroke-linecap="butt" d="m74.661705 373.51727l29.669296 0l0 5.7322693l-29.669296 0z" fill-rule="evenodd"/><path fill="#ffffff" d="m74.661705 364.41226l29.669296 0l0 5.7323l-29.669296 0z" fill-rule="evenodd"/><path stroke="#000000" stroke-width="1.0" stroke-linejoin="round" stroke-linecap="butt" d="m74.661705 364.41226l29.669296 0l0 5.7323l-29.669296 0z" fill-rule="evenodd"/><path fill="#ffffff" d="m74.661705 355.30728l29.669296 0l0 5.7323l-29.669296 0z" fill-rule="evenodd"/><path stroke="#000000" stroke-width="1.0" stroke-linejoin="round" stroke-linecap="butt" d="m74.661705 355.30728l29.669296 0l0 5.7323l-29.669296 0z" fill-rule="evenodd"/><path fill="#ffffff" d="m74.661705 346.2023l29.669296 0l0 5.7322693l-29.669296 0z" fill-rule="evenodd"/><path stroke="#000000" stroke-width="1.0" stroke-linejoin="round" stroke-linecap="butt" d="m74.661705 346.2023l29.669296 0l0 5.7322693l-29.669296 0z" fill-rule="evenodd"/><path fill="#ffffff" d="m74.661705 337.09732l29.669296 0l0 5.7322693l-29.669296 0z" fill-rule="evenodd"/><path stroke="#000000" stroke-width="1.0" stroke-linejoin="round" stroke-linecap="butt" d="m74.661705 337.09732l29.669296 0l0 5.7322693l-29.669296 0z" fill-rule="evenodd"/><path fill="#ffffff" d="m74.661705 327.99234l29.669296 0l0 5.7322693l-29.669296 0z" fill-rule="evenodd"/><path stroke="#000000" stroke-width="1.0" stroke-linejoin="round" stroke-linecap="butt" d="m74.661705 327.99234l29.669296 0l0 5.7322693l-29.669296 0z" fill-rule="evenodd"/><path fill="#ffffff" d="m74.661705 318.88733l29.669296 0l0 5.7323l-29.669296 0z" fill-rule="evenodd"/><path stroke="#000000" stroke-width="1.0" stroke-linejoin="round" stroke-linecap="butt" d="m74.661705 318.88733l29.669296 0l0 5.7323l-29.669296 0z" fill-rule="evenodd"/><path fill="#ffffff" d="m74.661705 309.78235l29.669296 0l0 5.7323l-29.669296 0z" fill-rule="evenodd"/><path stroke="#000000" stroke-width="1.0" stroke-linejoin="round" stroke-linecap="butt" d="m74.661705 309.78235l29.669296 0l0 5.7323l-29.669296 0z" fill-rule="evenodd"/><path fill="#ffffff" d="m74.661705 300.67737l29.669296 0l0 5.7322693l-29.669296 0z" fill-rule="evenodd"/><path stroke="#000000" stroke-width="1.0" stroke-linejoin="round" stroke-linecap="butt" d="m74.661705 300.67737l29.669296 0l0 5.7322693l-29.669296 0z" fill-rule="evenodd"/><path fill="#ffffff" d="m74.661705 291.5724l29.669296 0l0 5.7322693l-29.669296 0z" fill-rule="evenodd"/><path stroke="#000000" stroke-width="1.0" stroke-linejoin="round" stroke-linecap="butt" d="m74.661705 291.5724l29.669296 0l0 5.7322693l-29.669296 0z" fill-rule="evenodd"/><path fill="#ffffff" d="m74.661705 282.4674l29.669296 0l0 5.7322693l-29.669296 0z" fill-rule="evenodd"/><path stroke="#000000" stroke-width="1.0" stroke-linejoin="round" stroke-linecap="butt" d="m74.661705 282.4674l29.669296 0l0 5.7322693l-29.669296 0z" fill-rule="evenodd"/><path fill="#ffffff" d="m74.661705 273.3624l29.669296 0l0 5.7323l-29.669296 0z" fill-rule="evenodd"/><path stroke="#000000" stroke-width="1.0" stroke-linejoin="round" stroke-linecap="butt" d="m74.661705 273.3624l29.669296 0l0 5.7323l-29.669296 0z" fill-rule="evenodd"/><path fill="#ffffff" d="m74.660385 264.25723l135.9055 0l0 5.7322693l-135.9055 0z" fill-rule="evenodd"/><path stroke="#000000" stroke-width="1.0" stroke-linejoin="round" stroke-linecap="butt" d="m74.660385 264.25723l135.9055 0l0 5.7322693l-135.9055 0z" fill-rule="evenodd"/><path fill="#ffffff" d="m74.66127 255.15224l119.968506 0l0 5.7322845l-119.968506 0z" fill-rule="evenodd"/><path stroke="#000000" stroke-width="1.0" stroke-linejoin="round" stroke-linecap="butt" d="m74.66127 255.15224l119.968506 0l0 5.7322845l-119.968506 0z" fill-rule="evenodd"/><path fill="#ffffff" d="m74.660355 246.04724l138.92914 0l0 5.7322845l-138.92914 0z" fill-rule="evenodd"/><path stroke="#000000" stroke-width="1.0" stroke-linejoin="round" stroke-linecap="butt" d="m74.660355 246.04724l138.92914 0l0 5.7322845l-138.92914 0z" fill-rule="evenodd"/><path fill="#ffffff" d="m74.660484 236.94226l125.448814 0l0 5.7322845l-125.448814 0z" fill-rule="evenodd"/><path stroke="#000000" stroke-width="1.0" stroke-linejoin="round" stroke-linecap="butt" d="m74.660484 236.94226l125.448814 0l0 5.7322845l-125.448814 0z" fill-rule="evenodd"/><path fill="#ffffff" d="m74.661705 227.83746l29.669296 0l0 5.7322845l-29.669296 0z" fill-rule="evenodd"/><path stroke="#000000" stroke-width="1.0" stroke-linejoin="round" stroke-linecap="butt" d="m74.661705 227.83746l29.669296 0l0 5.7322845l-29.669296 0z" fill-rule="evenodd"/><path fill="#ffffff" d="m74.661705 218.73248l29.669296 0l0 5.7322845l-29.669296 0z" fill-rule="evenodd"/><path stroke="#000000" stroke-width="1.0" stroke-linejoin="round" stroke-linecap="butt" d="m74.661705 218.73248l29.669296 0l0 5.7322845l-29.669296 0z" fill-rule="evenodd"/><path fill="#ffffff" d="m74.661705 209.6275l29.669296 0l0 5.7322845l-29.669296 0z" fill-rule="evenodd"/><path stroke="#000000" stroke-width="1.0" stroke-linejoin="round" stroke-linecap="butt" d="m74.661705 209.6275l29.669296 0l0 5.7322845l-29.669296 0z" fill-rule="evenodd"/><path fill="#ffffff" d="m74.661705 200.5225l29.669296 0l0 5.7322845l-29.669296 0z" fill-rule="evenodd"/><path stroke="#000000" stroke-width="1.0" stroke-linejoin="round" stroke-linecap="butt" d="m74.661705 200.5225l29.669296 0l0 5.7322845l-29.669296 0z" fill-rule="evenodd"/><path fill="#ffffff" d="m74.661705 191.41753l29.669296 0l0 5.7322845l-29.669296 0z" fill-rule="evenodd"/><path stroke="#000000" stroke-width="1.0" stroke-linejoin="round" stroke-linecap="butt" d="m74.661705 191.41753l29.669296 0l0 5.7322845l-29.669296 0z" fill-rule="evenodd"/><path fill="#ffffff" d="m74.661705 182.31253l29.669296 0l0 5.7322845l-29.669296 0z" fill-rule="evenodd"/><path stroke="#000000" stroke-width="1.0" stroke-linejoin="round" stroke-linecap="butt" d="m74.661705 182.31253l29.669296 0l0 5.7322845l-29.669296 0z" fill-rule="evenodd"/><path fill="#ffffff" d="m74.661705 173.20755l29.669296 0l0 5.7322845l-29.669296 0z" fill-rule="evenodd"/><path stroke="#000000" stroke-width="1.0" stroke-linejoin="round" stroke-linecap="butt" d="m74.661705 173.20755l29.669296 0l0 5.7322845l-29.669296 0z" fill-rule="evenodd"/><path fill="#ffffff" d="m74.661705 164.10257l29.669296 0l0 5.7322693l-29.669296 0z" fill-rule="evenodd"/><path stroke="#000000" stroke-width="1.0" stroke-linejoin="round" stroke-linecap="butt" d="m74.661705 164.10257l29.669296 0l0 5.7322693l-29.669296 0z" fill-rule="evenodd"/><path fill="#ffffff" d="m74.661705 154.99757l29.669296 0l0 5.7322845l-29.669296 0z" fill-rule="evenodd"/><path stroke="#000000" stroke-width="1.0" stroke-linejoin="round" stroke-linecap="butt" d="m74.661705 154.99757l29.669296 0l0 5.7322845l-29.669296 0z" fill-rule="evenodd"/><path fill="#ffffff" d="m74.661705 145.8926l29.669296 0l0 5.7322845l-29.669296 0z" fill-rule="evenodd"/><path stroke="#000000" stroke-width="1.0" stroke-linejoin="round" stroke-linecap="butt" d="m74.661705 145.8926l29.669296 0l0 5.7322845l-29.669296 0z" fill-rule="evenodd"/><path fill="#ffffff" d="m74.661705 136.7876l29.669296 0l0 5.7322845l-29.669296 0z" fill-rule="evenodd"/><path stroke="#000000" stroke-width="1.0" stroke-linejoin="round" stroke-linecap="butt" d="m74.661705 136.7876l29.669296 0l0 5.7322845l-29.669296 0z" fill-rule="evenodd"/><path fill="#ffffff" d="m74.661705 127.68262l29.669296 0l0 5.7322845l-29.669296 0z" fill-rule="evenodd"/><path stroke="#000000" stroke-width="1.0" stroke-linejoin="round" stroke-linecap="butt" d="m74.661705 127.68262l29.669296 0l0 5.7322845l-29.669296 0z" fill-rule="evenodd"/><path fill="#ffffff" d="m74.661705 118.57763l29.669296 0l0 5.7322845l-29.669296 0z" fill-rule="evenodd"/><path stroke="#000000" stroke-width="1.0" stroke-linejoin="round" stroke-linecap="butt" d="m74.661705 118.57763l29.669296 0l0 5.7322845l-29.669296 0z" fill-rule="evenodd"/><path fill="#ffffff" d="m74.661705 109.47264l29.669296 0l0 5.7322845l-29.669296 0z" fill-rule="evenodd"/><path stroke="#000000" stroke-width="1.0" stroke-linejoin="round" stroke-linecap="butt" d="m74.661705 109.47264l29.669296 0l0 5.7322845l-29.669296 0z" fill-rule="evenodd"/><path fill="#ffffff" d="m74.65938 100.367455l238.80315 0l0 5.7322845l-238.80315 0z" fill-rule="evenodd"/><path stroke="#000000" stroke-width="1.0" stroke-linejoin="round" stroke-linecap="butt" d="m74.65938 100.367455l238.80315 0l0 5.7322845l-238.80315 0z" fill-rule="evenodd"/><path fill="#ffffff" d="m74.65944 91.26247l232.50395 0l0 5.7322845l-232.50395 0z" fill-rule="evenodd"/><path stroke="#000000" stroke-width="1.0" stroke-linejoin="round" stroke-linecap="butt" d="m74.65944 91.26247l232.50395 0l0 5.7322845l-232.50395 0z" fill-rule="evenodd"/><path fill="#ffffff" d="m74.659325 82.15748l246.14172 0l0 5.7322845l-246.14172 0z" fill-rule="evenodd"/><path stroke="#000000" stroke-width="1.0" stroke-linejoin="round" stroke-linecap="butt" d="m74.659325 82.15748l246.14172 0l0 5.7322845l-246.14172 0z" fill-rule="evenodd"/><path fill="#ffffff" d="m74.658714 74.661415l246.14172 0l0 5.7322845l-246.14172 0z" fill-rule="evenodd"/><path stroke="#000000" stroke-width="1.0" stroke-linejoin="round" stroke-linecap="butt" d="m74.658714 74.661415l246.14172 0l0 5.7322845l-246.14172 0z" fill-rule="evenodd"/></g></svg>